<svg xmlns="http://www.w3.org/2000/svg" width="1040" height="420" viewBox="0 0 1040 420" role="img" aria-label="Đặc trưng SPARQL theo train / validation / test"><style>text{font-family:Inter,system-ui,sans-serif;fill:#172033}.title{font-size:21px;font-weight:700}.label{font-size:13px}.value{font-size:14px;font-weight:700}.small{font-size:11px;font-weight:600}.axis{stroke:#94a3b8;stroke-width:1}</style><rect width="1040" height="420" fill="#ffffff"/><text x="520.0" y="31" text-anchor="middle" class="title">Đặc trưng SPARQL theo train / validation / test</text><rect x="92.6" y="308.3" width="21.3" height="26.7" rx="3" fill="#2563eb"/><text x="103.3" y="302.3" text-anchor="middle" class="small">235</text><rect x="193.8" y="92.0" width="21.3" height="243.0" rx="3" fill="#2563eb"/><text x="204.4" y="86.0" text-anchor="middle" class="small">2139</text><rect x="294.9" y="321.9" width="21.3" height="13.1" rx="3" fill="#2563eb"/><text x="305.5" y="315.9" text-anchor="middle" class="small">115</text><rect x="396.0" y="85.0" width="21.3" height="250.0" rx="3" fill="#2563eb"/><text x="406.6" y="79.0" text-anchor="middle" class="small">2201</text><rect x="497.1" y="294.0" width="21.3" height="41.0" rx="3" fill="#2563eb"/><text x="507.7" y="288.0" text-anchor="middle" class="small">361</text><rect x="598.2" y="294.8" width="21.3" height="40.2" rx="3" fill="#2563eb"/><text x="608.8" y="288.8" text-anchor="middle" class="small">354</text><rect x="699.3" y="321.4" width="21.3" height="13.6" rx="3" fill="#2563eb"/><text x="709.9" y="315.4" text-anchor="middle" class="small">120</text><rect x="800.4" y="112.4" width="21.3" height="222.6" rx="3" fill="#2563eb"/><text x="811.1" y="106.4" text-anchor="middle" class="small">1960</text><rect x="901.5" y="333.6" width="21.3" height="1.4" rx="3" fill="#2563eb"/><text x="912.2" y="327.6" text-anchor="middle" class="small">12</text><rect x="80" y="56" width="14" height="14" rx="2" fill="#2563eb"/><text x="101" y="68" class="label">train</text><rect x="117.9" y="331.9" width="21.3" height="3.1" rx="3" fill="#f59e0b"/><text x="128.6" y="325.9" text-anchor="middle" class="small">27</text><rect x="219.0" y="302.7" width="21.3" height="32.3" rx="3" fill="#f59e0b"/><text x="229.7" y="296.7" text-anchor="middle" class="small">284</text><rect x="320.1" y="333.9" width="21.3" height="1.1" rx="3" fill="#f59e0b"/><text x="330.8" y="327.9" text-anchor="middle" class="small">10</text><rect x="421.3" y="301.7" width="21.3" height="33.3" rx="3" fill="#f59e0b"/><text x="431.9" y="295.7" text-anchor="middle" class="small">293</text><rect x="522.4" y="324.8" width="21.3" height="10.2" rx="3" fill="#f59e0b"/><text x="533.0" y="318.8" text-anchor="middle" class="small">90</text><rect x="623.5" y="326.7" width="21.3" height="8.3" rx="3" fill="#f59e0b"/><text x="634.1" y="320.7" text-anchor="middle" class="small">73</text><rect x="724.6" y="332.7" width="21.3" height="2.3" rx="3" fill="#f59e0b"/><text x="735.2" y="326.7" text-anchor="middle" class="small">20</text><rect x="825.7" y="309.7" width="21.3" height="25.3" rx="3" fill="#f59e0b"/><text x="836.3" y="303.7" text-anchor="middle" class="small">223</text><rect x="926.8" y="334.8" width="21.3" height="0.2" rx="3" fill="#f59e0b"/><text x="937.4" y="328.8" text-anchor="middle" class="small">2</text><rect x="195" y="56" width="14" height="14" rx="2" fill="#f59e0b"/><text x="216" y="68" class="label">val</text><rect x="143.2" y="331.7" width="21.3" height="3.3" rx="3" fill="#10b981"/><text x="153.8" y="325.7" text-anchor="middle" class="small">29</text><rect x="244.3" y="302.3" width="21.3" height="32.7" rx="3" fill="#10b981"/><text x="254.9" y="296.3" text-anchor="middle" class="small">288</text><rect x="345.4" y="333.6" width="21.3" height="1.4" rx="3" fill="#10b981"/><text x="356.1" y="327.6" text-anchor="middle" class="small">12</text><rect x="446.5" y="301.4" width="21.3" height="33.6" rx="3" fill="#10b981"/><text x="457.2" y="295.4" text-anchor="middle" class="small">296</text><rect x="547.6" y="325.0" width="21.3" height="10.0" rx="3" fill="#10b981"/><text x="558.3" y="319.0" text-anchor="middle" class="small">88</text><rect x="648.8" y="326.6" width="21.3" height="8.4" rx="3" fill="#10b981"/><text x="659.4" y="320.6" text-anchor="middle" class="small">74</text><rect x="749.9" y="332.6" width="21.3" height="2.4" rx="3" fill="#10b981"/><text x="760.5" y="326.6" text-anchor="middle" class="small">21</text><rect x="851.0" y="309.0" width="21.3" height="26.0" rx="3" fill="#10b981"/><text x="861.6" y="303.0" text-anchor="middle" class="small">229</text><rect x="952.1" y="334.8" width="21.3" height="0.2" rx="3" fill="#10b981"/><text x="962.7" y="328.8" text-anchor="middle" class="small">2</text><rect x="310" y="56" width="14" height="14" rx="2" fill="#10b981"/><text x="331" y="68" class="label">test</text><text x="130.6" y="363" text-anchor="middle" class="label">filter</text><text x="231.7" y="363" text-anchor="middle" class="label">graph hop</text><text x="332.8" y="363" text-anchor="middle" class="label">limit</text><text x="433.9" y="363" text-anchor="middle" class="label">multi branch</text><text x="535.0" y="363" text-anchor="middle" class="label">multi column</text><text x="636.1" y="363" text-anchor="middle" class="label">order</text><text x="737.2" y="363" text-anchor="middle" class="label">single branch</text><text x="838.3" y="363" text-anchor="middle" class="label">single column</text><text x="939.4" y="363" text-anchor="middle" class="label">values</text><line x1="80" y1="335" x2="990" y2="335" class="axis"/></svg>
