<svg xmlns="http://www.w3.org/2000/svg" width="1240" height="420" viewBox="0 0 1240 420" role="img" aria-label="Đặc trưng SPARQL theo train / validation / test"><style>text{font-family:Inter,system-ui,sans-serif;fill:#172033}.title{font-size:21px;font-weight:700}.label{font-size:13px}.value{font-size:14px;font-weight:700}.small{font-size:11px;font-weight:600}.axis{stroke:#94a3b8;stroke-width:1}</style><rect width="1240" height="420" fill="#ffffff"/><text x="620.0" y="31" text-anchor="middle" class="title">Đặc trưng SPARQL theo train / validation / test</text><rect x="92.6" y="308.7" width="21.2" height="26.3" rx="3" fill="#2563eb"/><text x="103.2" y="302.7" text-anchor="middle" class="small">82</text><rect x="193.5" y="315.1" width="21.2" height="19.9" rx="3" fill="#2563eb"/><text x="204.1" y="309.1" text-anchor="middle" class="small">62</text><rect x="294.4" y="177.3" width="21.2" height="157.7" rx="3" fill="#2563eb"/><text x="305.0" y="171.3" text-anchor="middle" class="small">492</text><rect x="395.3" y="326.0" width="21.2" height="9.0" rx="3" fill="#2563eb"/><text x="406.0" y="320.0" text-anchor="middle" class="small">28</text><rect x="496.2" y="326.7" width="21.2" height="8.3" rx="3" fill="#2563eb"/><text x="506.9" y="320.7" text-anchor="middle" class="small">26</text><rect x="597.2" y="107.4" width="21.2" height="227.6" rx="3" fill="#2563eb"/><text x="607.8" y="101.4" text-anchor="middle" class="small">710</text><rect x="698.1" y="216.4" width="21.2" height="118.6" rx="3" fill="#2563eb"/><text x="708.7" y="210.4" text-anchor="middle" class="small">370</text><rect x="799.0" y="311.3" width="21.2" height="23.7" rx="3" fill="#2563eb"/><text x="809.6" y="305.3" text-anchor="middle" class="small">74</text><rect x="899.9" y="194.0" width="21.2" height="141.0" rx="3" fill="#2563eb"/><text x="910.5" y="188.0" text-anchor="middle" class="small">440</text><rect x="1000.8" y="85.0" width="21.2" height="250.0" rx="3" fill="#2563eb"/><text x="1011.4" y="79.0" text-anchor="middle" class="small">780</text><rect x="1101.7" y="327.3" width="21.2" height="7.7" rx="3" fill="#2563eb"/><text x="1112.3" y="321.3" text-anchor="middle" class="small">24</text><rect x="80" y="56" width="14" height="14" rx="2" fill="#2563eb"/><text x="101" y="68" class="label">train</text><rect x="117.8" y="328.3" width="21.2" height="6.7" rx="3" fill="#f59e0b"/><text x="128.5" y="322.3" text-anchor="middle" class="small">21</text><rect x="218.8" y="329.6" width="21.2" height="5.4" rx="3" fill="#f59e0b"/><text x="229.4" y="323.6" text-anchor="middle" class="small">17</text><rect x="319.7" y="303.6" width="21.2" height="31.4" rx="3" fill="#f59e0b"/><text x="330.3" y="297.6" text-anchor="middle" class="small">98</text><rect x="420.6" y="333.1" width="21.2" height="1.9" rx="3" fill="#f59e0b"/><text x="431.2" y="327.1" text-anchor="middle" class="small">6</text><rect x="521.5" y="332.8" width="21.2" height="2.2" rx="3" fill="#f59e0b"/><text x="532.1" y="326.8" text-anchor="middle" class="small">7</text><rect x="622.4" y="282.8" width="21.2" height="52.2" rx="3" fill="#f59e0b"/><text x="633.0" y="276.8" text-anchor="middle" class="small">163</text><rect x="723.3" y="303.9" width="21.2" height="31.1" rx="3" fill="#f59e0b"/><text x="733.9" y="297.9" text-anchor="middle" class="small">97</text><rect x="824.2" y="329.6" width="21.2" height="5.4" rx="3" fill="#f59e0b"/><text x="834.8" y="323.6" text-anchor="middle" class="small">17</text><rect x="925.1" y="318.3" width="21.2" height="16.7" rx="3" fill="#f59e0b"/><text x="935.7" y="312.3" text-anchor="middle" class="small">52</text><rect x="1026.0" y="297.2" width="21.2" height="37.8" rx="3" fill="#f59e0b"/><text x="1036.6" y="291.2" text-anchor="middle" class="small">118</text><rect x="1126.9" y="333.1" width="21.2" height="1.9" rx="3" fill="#f59e0b"/><text x="1137.5" y="327.1" text-anchor="middle" class="small">6</text><rect x="195" y="56" width="14" height="14" rx="2" fill="#f59e0b"/><text x="216" y="68" class="label">val</text><rect x="143.1" y="328.3" width="21.2" height="6.7" rx="3" fill="#10b981"/><text x="153.7" y="322.3" text-anchor="middle" class="small">21</text><rect x="244.0" y="329.6" width="21.2" height="5.4" rx="3" fill="#10b981"/><text x="254.6" y="323.6" text-anchor="middle" class="small">17</text><rect x="344.9" y="303.6" width="21.2" height="31.4" rx="3" fill="#10b981"/><text x="355.5" y="297.6" text-anchor="middle" class="small">98</text><rect x="445.8" y="333.1" width="21.2" height="1.9" rx="3" fill="#10b981"/><text x="456.4" y="327.1" text-anchor="middle" class="small">6</text><rect x="546.7" y="332.8" width="21.2" height="2.2" rx="3" fill="#10b981"/><text x="557.3" y="326.8" text-anchor="middle" class="small">7</text><rect x="647.6" y="282.8" width="21.2" height="52.2" rx="3" fill="#10b981"/><text x="658.2" y="276.8" text-anchor="middle" class="small">163</text><rect x="748.5" y="303.9" width="21.2" height="31.1" rx="3" fill="#10b981"/><text x="759.1" y="297.9" text-anchor="middle" class="small">97</text><rect x="849.4" y="329.6" width="21.2" height="5.4" rx="3" fill="#10b981"/><text x="860.0" y="323.6" text-anchor="middle" class="small">17</text><rect x="950.3" y="318.3" width="21.2" height="16.7" rx="3" fill="#10b981"/><text x="961.0" y="312.3" text-anchor="middle" class="small">52</text><rect x="1051.2" y="297.2" width="21.2" height="37.8" rx="3" fill="#10b981"/><text x="1061.9" y="291.2" text-anchor="middle" class="small">118</text><rect x="1152.2" y="333.1" width="21.2" height="1.9" rx="3" fill="#10b981"/><text x="1162.8" y="327.1" text-anchor="middle" class="small">6</text><rect x="310" y="56" width="14" height="14" rx="2" fill="#10b981"/><text x="331" y="68" class="label">test</text><text x="130.5" y="363" text-anchor="middle" class="label">aggregate</text><text x="231.4" y="363" text-anchor="middle" class="label">filter</text><text x="332.3" y="363" text-anchor="middle" class="label">graph hop</text><text x="433.2" y="363" text-anchor="middle" class="label">group</text><text x="534.1" y="363" text-anchor="middle" class="label">limit</text><text x="635.0" y="363" text-anchor="middle" class="label">multi branch</text><text x="735.9" y="363" text-anchor="middle" class="label">multi column</text><text x="836.8" y="363" text-anchor="middle" class="label">order</text><text x="937.7" y="363" text-anchor="middle" class="label">single branch</text><text x="1038.6" y="363" text-anchor="middle" class="label">single column</text><text x="1139.5" y="363" text-anchor="middle" class="label">values</text><line x1="80" y1="335" x2="1190" y2="335" class="axis"/></svg>
