<svg xmlns="http://www.w3.org/2000/svg" width="1060" height="430" viewBox="0 0 1060 430" role="img" aria-label="Test answer exact theo phong cách câu hỏi"><style>text{font-family:Inter,system-ui,sans-serif;fill:#172033}.title{font-size:21px;font-weight:700}.label{font-size:13px}.value{font-size:14px;font-weight:700}.small{font-size:11px;font-weight:600}.axis{stroke:#94a3b8;stroke-width:1}</style><rect width="1060" height="430" fill="#ffffff"/><text x="530.0" y="31" text-anchor="middle" class="title">Test answer exact theo phong cách câu hỏi</text><rect x="104.2" y="275.9" width="54.4" height="64.1" rx="3" fill="#2563eb"/><text x="131.4" y="269.9" text-anchor="middle" class="small">25.6%</text><rect x="338.0" y="256.7" width="54.4" height="83.3" rx="3" fill="#2563eb"/><text x="365.2" y="250.7" text-anchor="middle" class="small">33.3%</text><rect x="571.7" y="301.5" width="54.4" height="38.5" rx="3" fill="#2563eb"/><text x="598.9" y="295.5" text-anchor="middle" class="small">15.4%</text><rect x="805.5" y="295.1" width="54.4" height="44.9" rx="3" fill="#2563eb"/><text x="832.7" y="289.1" text-anchor="middle" class="small">17.9%</text><rect x="75" y="56" width="14" height="14" rx="2" fill="#2563eb"/><text x="96" y="68" class="label">bartpho</text><rect x="162.7" y="275.9" width="54.4" height="64.1" rx="3" fill="#f59e0b"/><text x="189.9" y="269.9" text-anchor="middle" class="small">25.6%</text><rect x="396.4" y="250.3" width="54.4" height="89.7" rx="3" fill="#f59e0b"/><text x="423.6" y="244.3" text-anchor="middle" class="small">35.9%</text><rect x="630.2" y="288.7" width="54.4" height="51.3" rx="3" fill="#f59e0b"/><text x="657.4" y="282.7" text-anchor="middle" class="small">20.5%</text><rect x="863.9" y="275.9" width="54.4" height="64.1" rx="3" fill="#f59e0b"/><text x="891.1" y="269.9" text-anchor="middle" class="small">25.6%</text><rect x="220" y="56" width="14" height="14" rx="2" fill="#f59e0b"/><text x="241" y="68" class="label">vit5</text><rect x="221.1" y="288.7" width="54.4" height="51.3" rx="3" fill="#10b981"/><text x="248.3" y="282.7" text-anchor="middle" class="small">20.5%</text><rect x="454.8" y="288.7" width="54.4" height="51.3" rx="3" fill="#10b981"/><text x="482.1" y="282.7" text-anchor="middle" class="small">20.5%</text><rect x="688.6" y="301.5" width="54.4" height="38.5" rx="3" fill="#10b981"/><text x="715.8" y="295.5" text-anchor="middle" class="small">15.4%</text><rect x="922.3" y="288.7" width="54.4" height="51.3" rx="3" fill="#10b981"/><text x="949.6" y="282.7" text-anchor="middle" class="small">20.5%</text><rect x="365" y="56" width="14" height="14" rx="2" fill="#10b981"/><text x="386" y="68" class="label">t5gemma2</text><text x="191.9" y="368" text-anchor="middle" class="label">colloquial</text><text x="425.6" y="368" text-anchor="middle" class="label">formal</text><text x="659.4" y="368" text-anchor="middle" class="label">neutral</text><text x="893.1" y="368" text-anchor="middle" class="label">noisy</text><line x1="75" y1="340" x2="1010" y2="340" class="axis"/></svg>
