<svg xmlns="http://www.w3.org/2000/svg" width="920" height="430" viewBox="0 0 920 430" role="img" aria-label="Validation answer exact theo epoch"><style>text{font-family:Inter,system-ui,sans-serif;fill:#172033}.title{font-size:21px;font-weight:700}.label{font-size:13px}.value{font-size:14px;font-weight:700}.small{font-size:11px;font-weight:600}.axis{stroke:#94a3b8;stroke-width:1}</style><rect width="920" height="430" fill="#ffffff"/><text x="460.0" y="31" text-anchor="middle" class="title">Validation answer exact theo epoch</text><line x1="78" y1="82.0" x2="868" y2="82.0" stroke="#e2e8f0"/><text x="68" y="86.0" text-anchor="end" class="small">91%</text><line x1="78" y1="136.0" x2="868" y2="136.0" stroke="#e2e8f0"/><text x="68" y="140.0" text-anchor="end" class="small">73%</text><line x1="78" y1="190.0" x2="868" y2="190.0" stroke="#e2e8f0"/><text x="68" y="194.0" text-anchor="end" class="small">55%</text><line x1="78" y1="244.0" x2="868" y2="244.0" stroke="#e2e8f0"/><text x="68" y="248.0" text-anchor="end" class="small">37%</text><line x1="78" y1="298.0" x2="868" y2="298.0" stroke="#e2e8f0"/><text x="68" y="302.0" text-anchor="end" class="small">19%</text><line x1="78" y1="352.0" x2="868" y2="352.0" stroke="#e2e8f0"/><text x="68" y="356.0" text-anchor="end" class="small">0%</text><polyline points="78.0,311.8 165.8,245.6 253.6,178.7 341.3,150.4 429.1,127.4 516.9,124.4 604.7,108.0 692.4,101.3 780.2,99.9 868.0,99.9" fill="none" stroke="#2563eb" stroke-width="2.5"/><line x1="78" y1="57" x2="96" y2="57" stroke="#2563eb" stroke-width="3"/><text x="103" y="61" class="label">bartpho</text><polyline points="78.0,352.0 165.8,324.5 253.6,244.9 341.3,172.0 429.1,142.2 516.9,128.1 604.7,119.2 692.4,113.2 780.2,114.0 868.0,114.7" fill="none" stroke="#f59e0b" stroke-width="2.5"/><line x1="223" y1="57" x2="241" y2="57" stroke="#f59e0b" stroke-width="3"/><text x="248" y="61" class="label">vit5</text><polyline points="78.0,212.9 165.8,124.4 253.6,107.3 341.3,98.4 429.1,90.2 516.9,82.0 604.7,85.7 692.4,85.0 780.2,84.2" fill="none" stroke="#10b981" stroke-width="2.5"/><line x1="368" y1="57" x2="386" y2="57" stroke="#10b981" stroke-width="3"/><text x="393" y="61" class="label">t5gemma2</text><line x1="78" y1="352" x2="868" y2="352" class="axis"/><text x="473.0" y="392" text-anchor="middle" class="label">epoch</text></svg>
