<svg xmlns="http://www.w3.org/2000/svg" width="920" height="430" viewBox="0 0 920 430" role="img" aria-label="Validation answer exact theo epoch"><style>text{font-family:Inter,system-ui,sans-serif;fill:#172033}.title{font-size:21px;font-weight:700}.label{font-size:13px}.value{font-size:14px;font-weight:700}.small{font-size:11px;font-weight:600}.axis{stroke:#94a3b8;stroke-width:1}</style><rect width="920" height="430" fill="#ffffff"/><text x="460.0" y="31" text-anchor="middle" class="title">Validation answer exact theo epoch</text><line x1="78" y1="82.0" x2="868" y2="82.0" stroke="#e2e8f0"/><text x="68" y="86.0" text-anchor="end" class="small">82%</text><line x1="78" y1="136.0" x2="868" y2="136.0" stroke="#e2e8f0"/><text x="68" y="140.0" text-anchor="end" class="small">69%</text><line x1="78" y1="190.0" x2="868" y2="190.0" stroke="#e2e8f0"/><text x="68" y="194.0" text-anchor="end" class="small">56%</text><line x1="78" y1="244.0" x2="868" y2="244.0" stroke="#e2e8f0"/><text x="68" y="248.0" text-anchor="end" class="small">44%</text><line x1="78" y1="298.0" x2="868" y2="298.0" stroke="#e2e8f0"/><text x="68" y="302.0" text-anchor="end" class="small">31%</text><line x1="78" y1="352.0" x2="868" y2="352.0" stroke="#e2e8f0"/><text x="68" y="356.0" text-anchor="end" class="small">18%</text><polyline points="78.0,175.0 149.8,118.0 221.6,100.0 293.5,88.0 365.3,94.0 437.1,91.0 508.9,91.0 580.7,91.0 652.5,91.0 724.4,91.0 796.2,91.0 868.0,91.0" fill="none" stroke="#2563eb" stroke-width="2.5"/><line x1="78" y1="57" x2="96" y2="57" stroke="#2563eb" stroke-width="3"/><text x="103" y="61" class="label">bartpho</text><polyline points="78.0,352.0 149.8,292.0 221.6,196.0 293.5,139.0 365.3,139.0 437.1,103.0 508.9,100.0 580.7,97.0 652.5,94.0 724.4,82.0 796.2,100.0 868.0,88.0" fill="none" stroke="#f59e0b" stroke-width="2.5"/><line x1="223" y1="57" x2="241" y2="57" stroke="#f59e0b" stroke-width="3"/><text x="248" y="61" class="label">vit5</text><polyline points="78.0,151.0 149.8,130.0 221.6,88.0 293.5,133.0 365.3,97.0 437.1,112.0" fill="none" stroke="#10b981" stroke-width="2.5"/><line x1="368" y1="57" x2="386" y2="57" stroke="#10b981" stroke-width="3"/><text x="393" y="61" class="label">t5gemma2</text><line x1="78" y1="352" x2="868" y2="352" class="axis"/><text x="473.0" y="392" text-anchor="middle" class="label">epoch</text></svg>
