<svg xmlns="http://www.w3.org/2000/svg" width="1060" height="430" viewBox="0 0 1060 430" role="img" aria-label="Chẩn đoán: khớp tập kết quả theo phong cách câu hỏi"><style>text{font-family:Inter,system-ui,sans-serif;fill:#172033}.title{font-size:21px;font-weight:700}.label{font-size:13px}.value{font-size:14px;font-weight:700}.small{font-size:11px;font-weight:600}.axis{stroke:#94a3b8;stroke-width:1}</style><rect width="1060" height="430" fill="#ffffff"/><text x="530.0" y="31" text-anchor="middle" class="title">Chẩn đoán: khớp tập kết quả theo phong cách câu hỏi</text><rect x="98.4" y="159.6" width="42.8" height="180.4" rx="3" fill="#2563eb"/><text x="119.8" y="153.6" text-anchor="middle" class="small">72.2%</text><rect x="332.1" y="125.7" width="42.8" height="214.3" rx="3" fill="#2563eb"/><text x="353.5" y="119.7" text-anchor="middle" class="small">85.7%</text><rect x="565.9" y="125.4" width="42.8" height="214.6" rx="3" fill="#2563eb"/><text x="587.2" y="119.4" text-anchor="middle" class="small">85.9%</text><rect x="799.6" y="204.6" width="42.8" height="135.4" rx="3" fill="#2563eb"/><text x="821.0" y="198.6" text-anchor="middle" class="small">54.2%</text><rect x="75" y="56" width="14" height="14" rx="2" fill="#2563eb"/><text x="96" y="68" class="label">bartpho</text><rect x="145.1" y="193.1" width="42.8" height="146.9" rx="3" fill="#f59e0b"/><text x="166.5" y="187.1" text-anchor="middle" class="small">58.8%</text><rect x="378.9" y="179.3" width="42.8" height="160.7" rx="3" fill="#f59e0b"/><text x="400.2" y="173.3" text-anchor="middle" class="small">64.3%</text><rect x="612.6" y="180.9" width="42.8" height="159.1" rx="3" fill="#f59e0b"/><text x="634.0" y="174.9" text-anchor="middle" class="small">63.6%</text><rect x="846.4" y="222.8" width="42.8" height="117.2" rx="3" fill="#f59e0b"/><text x="867.8" y="216.8" text-anchor="middle" class="small">46.9%</text><rect x="220" y="56" width="14" height="14" rx="2" fill="#f59e0b"/><text x="241" y="68" class="label">vit5</text><rect x="191.9" y="131.2" width="42.8" height="208.8" rx="3" fill="#10b981"/><text x="213.2" y="125.2" text-anchor="middle" class="small">83.5%</text><rect x="425.6" y="123.2" width="42.8" height="216.8" rx="3" fill="#10b981"/><text x="447.0" y="117.2" text-anchor="middle" class="small">86.7%</text><rect x="659.4" y="122.8" width="42.8" height="217.2" rx="3" fill="#10b981"/><text x="680.8" y="116.8" text-anchor="middle" class="small">86.9%</text><rect x="893.1" y="170.7" width="42.8" height="169.3" rx="3" fill="#10b981"/><text x="914.5" y="164.7" text-anchor="middle" class="small">67.7%</text><rect x="365" y="56" width="14" height="14" rx="2" fill="#10b981"/><text x="386" y="68" class="label">t5gemma2</text><rect x="238.6" y="162.2" width="42.8" height="177.8" rx="3" fill="#8b5cf6"/><text x="260.0" y="156.2" text-anchor="middle" class="small">71.1%</text><rect x="472.4" y="133.4" width="42.8" height="206.6" rx="3" fill="#8b5cf6"/><text x="493.8" y="127.4" text-anchor="middle" class="small">82.7%</text><rect x="706.1" y="127.9" width="42.8" height="212.1" rx="3" fill="#8b5cf6"/><text x="727.5" y="121.9" text-anchor="middle" class="small">84.8%</text><rect x="939.9" y="207.2" width="42.8" height="132.8" rx="3" fill="#8b5cf6"/><text x="961.2" y="201.2" text-anchor="middle" class="small">53.1%</text><rect x="510" y="56" width="14" height="14" rx="2" fill="#8b5cf6"/><text x="531" y="68" class="label">mbart</text><text x="191.9" y="368" text-anchor="middle" class="label">colloquial</text><text x="425.6" y="368" text-anchor="middle" class="label">formal</text><text x="659.4" y="368" text-anchor="middle" class="label">neutral</text><text x="893.1" y="368" text-anchor="middle" class="label">noisy</text><line x1="75" y1="340" x2="1010" y2="340" class="axis"/></svg>
