<svg xmlns="http://www.w3.org/2000/svg" width="920" height="430" viewBox="0 0 920 430" role="img" aria-label="Validation loss theo epoch (thang log)"><style>text{font-family:Inter,system-ui,sans-serif;fill:#172033}.title{font-size:21px;font-weight:700}.label{font-size:13px}.value{font-size:14px;font-weight:700}.small{font-size:11px;font-weight:600}.axis{stroke:#94a3b8;stroke-width:1}</style><rect width="920" height="430" fill="#ffffff"/><text x="460.0" y="31" text-anchor="middle" class="title">Validation loss theo epoch (thang log)</text><line x1="78" y1="82.0" x2="868" y2="82.0" stroke="#e2e8f0"/><text x="68" y="86.0" text-anchor="end" class="small">3.78</text><line x1="78" y1="136.0" x2="868" y2="136.0" stroke="#e2e8f0"/><text x="68" y="140.0" text-anchor="end" class="small">1.06</text><line x1="78" y1="190.0" x2="868" y2="190.0" stroke="#e2e8f0"/><text x="68" y="194.0" text-anchor="end" class="small">0.298</text><line x1="78" y1="244.0" x2="868" y2="244.0" stroke="#e2e8f0"/><text x="68" y="248.0" text-anchor="end" class="small">0.0836</text><line x1="78" y1="298.0" x2="868" y2="298.0" stroke="#e2e8f0"/><text x="68" y="302.0" text-anchor="end" class="small">0.0235</text><line x1="78" y1="352.0" x2="868" y2="352.0" stroke="#e2e8f0"/><text x="68" y="356.0" text-anchor="end" class="small">0.0066</text><polyline points="78.0,228.3 130.7,265.0 183.3,289.2 236.0,303.5 288.7,308.6 341.3,320.5 394.0,331.5 446.7,326.5 499.3,317.4 552.0,336.0 604.7,332.9 657.3,337.2 710.0,341.8 762.7,345.3 815.3,346.6 868.0,342.8" fill="none" stroke="#2563eb" stroke-width="2.5"/><line x1="78" y1="57" x2="96" y2="57" stroke="#2563eb" stroke-width="3"/><text x="103" y="61" class="label">bartpho</text><polyline points="78.0,226.7 130.7,256.3 183.3,276.2 236.0,290.5 288.7,300.8 341.3,313.4 394.0,318.3 446.7,328.7 499.3,323.7 552.0,330.9 604.7,321.5 657.3,332.0 710.0,328.9 762.7,334.6 815.3,327.9 868.0,328.1" fill="none" stroke="#f59e0b" stroke-width="2.5"/><line x1="223" y1="57" x2="241" y2="57" stroke="#f59e0b" stroke-width="3"/><text x="248" y="61" class="label">vit5</text><polyline points="78.0,303.1 130.7,316.4 183.3,315.4 236.0,320.4 288.7,339.2 341.3,322.5 394.0,314.2 446.7,352.0 499.3,328.0 552.0,335.2 604.7,341.2" fill="none" stroke="#10b981" stroke-width="2.5"/><line x1="368" y1="57" x2="386" y2="57" stroke="#10b981" stroke-width="3"/><text x="393" y="61" class="label">t5gemma2</text><polyline points="78.0,206.2 130.7,285.4 183.3,297.4 236.0,82.0 288.7,317.1 341.3,323.2 394.0,331.1 446.7,318.1 499.3,315.7 552.0,343.1 604.7,339.1 657.3,318.6 710.0,328.9" fill="none" stroke="#8b5cf6" stroke-width="2.5"/><line x1="513" y1="57" x2="531" y2="57" stroke="#8b5cf6" stroke-width="3"/><text x="538" y="61" class="label">mbart</text><line x1="78" y1="352" x2="868" y2="352" class="axis"/><text x="473.0" y="392" text-anchor="middle" class="label">epoch</text></svg>
